# xmcd
#
# Track frame offsets: 
#        150
#        13888
#        24760
#        32952
#        41716
#        53189
#        64196
#        72801
#        82836
#        95954
#        108147
#
# Disc length: 1640 seconds
#
# Revision: 0
# Processed by: cddbd v1.5.2PL0 Copyright (c) Steve Scherf et al.
# Submitted via: ExactAudioCopy v1.0b1
#
DISCID=8b06660b
DTITLE=The Kingsmen Quartet - Songs of Faith (Remastered)
DYEAR=2007
DGENRE=Gospel
TTITLE0=Jesus Is The King
TTITLE1=My Labors Will Be O're
TTITLE2=Take Me Back To The Cross
TTITLE3=I Want To Be Faithful
TTITLE4=I Cannot Live This Life All By Myself
TTITLE5=Reunion In Heaven
TTITLE6=Above The Storm
TTITLE7=Come And See
TTITLE8=Try A Little Kindness
TTITLE9=He Hideth My Soul
TTITLE10=I believe In A Hill Called Mount Calvary
EXTD=
EXTT0=
EXTT1=
EXTT2=
EXTT3=
EXTT4=
EXTT5=
EXTT6=
EXTT7=
EXTT8=
EXTT9=
EXTT10=
PLAYORDER=
